# xmcd
#
# Track frame offsets: 
#        150
#        11849
#        25378
#        37139
#        49327
#        57024
#        70716
#        82619
#        91864
#        103090
#        116078
#        127833
#        139924
#        152744
#        165397
#        178886
#        190551
#        202353
#        211396
#        219731
#        232250
#        244001
#        256200
#        267360
#        279328
#        292122
#        305822
#        318798
#
# Disc length: 4386 seconds
#
# Revision: 1
# Processed by: cddbd v1.5.2PL0 Copyright (c) Steve Scherf et al.
# Submitted via: ExactAudioCopy v1.3
#
DISCID=a111201c
DTITLE=Various Artist - TARHEEL Swing (Krazy Kat)
DYEAR=2003
DGENRE=Country
TTITLE0=Glen Thompson - Dixie Playboy Swing
TTITLE1=Glen Thompson - Rocky Mountain Sweetheart
TTITLE2=Billy Stickland - Hillbilly Wolf
TTITLE3=Preston Miller - Sugar Street Boogie
TTITLE4=Smiley Wilson - Juke Box Baby
TTITLE5=Glen Thompson - Dixieland Boogie
TTITLE6=Glen Thompson - Lover's Lane - Glen Thompson
TTITLE7=Tommy Little - High Geared Daddy
TTITLE8=Tommy Little - We Can Never Love Again
TTITLE9=Clyde Moody - I Worship You
TTITLE10=Clyde Moody - If I Had My Life To Live Over
TTITLE11=Gene Ray - Playboy Boogie
TTITLE12=Harry Fowler - Carolina Swing
TTITLE13=Jim Hall - Waitin' In Old Caroline
TTITLE14=Jim Hall - Jim Hall's Boogie
TTITLE15=Glen Thompson - When I Get The Blues
TTITLE16=Glen Thompson - Love Faded Like A Rose
TTITLE17=Tommy Little - All Alone
TTITLE18=Tommy Little - I Don't Mind Being Blue
TTITLE19=Jim and Don - What Is Life Lived Alone
TTITLE20=Cecil Campbell - I Get The Blues
TTITLE21=Cecil Campbell - Boogie Woogie On Steel
TTITLE22=Cecil Campbell - Just A Drop In The Bucket
TTITLE23=Clyde Moody - I Know What It Means To Be Lonesome
TTITLE24=Clyde Moody - TrackIf You Need Me I'll Still Be Around
TTITLE25=Glen Thompson - Everybody's Trying To Be My Baby
TTITLE26=Glen Thompson - Just A Smile Before You Go
TTITLE27=Glen Thompson - What A Line
EXTD=
EXTT0=
EXTT1=
EXTT2=
EXTT3=
EXTT4=
EXTT5=
EXTT6=
EXTT7=
EXTT8=
EXTT9=
EXTT10=
EXTT11=
EXTT12=
EXTT13=
EXTT14=
EXTT15=
EXTT16=
EXTT17=
EXTT18=
EXTT19=
EXTT20=
EXTT21=
EXTT22=
EXTT23=
EXTT24=
EXTT25=
EXTT26=
EXTT27=
PLAYORDER=
